<?xml version="1.0" encoding="UTF-8"?>
<svg id="Layer_2" data-name="Layer 2" xmlns="http://www.w3.org/2000/svg" viewBox="0 0 200.69 200.01">
  <defs>
    <style>
      .cls-1 {
        stroke-width: 0px;
      }
    </style>
  </defs>
  <g id="Layer_1-2" data-name="Layer 1">
    <path class="cls-1" d="m93.79,160.39c-.99.1-1.77.17-2.6.09-18.52-1.86-31.45-11.78-45.86-22.6C25.93,123.31,11.05,105.11.7,82.62c-1.81-3.93.03-8.58,4.02-10.25l14.54-6.07c3.75-1.57,8.06.08,9.84,3.74,15.52,31.77,35.99,59.29,68.33,78.79,1.89,1.14,2.9,3.06,2.99,5.02.11,2.62-1.7,4.95-4.19,5.77l-2.44.78ZM132.83,28.41c3.19-1.97,4.49-5.96,3.06-9.42-1.92-4.67-3.87-9.39-5.87-14.25-1.69-4.09-6.49-5.9-10.47-3.96-34.42,16.81-58.8,42.07-73.79,77.08-1.31,3.07-2.08,5.86-2.18,8.45-.3,7.55,9.66,10.68,13.95,4.46,1.18-1.71,2.38-3.38,3.63-5.01,14.56-18.77,24.6-28.04,52.19-45.33l19.48-12.02Zm-21.05,27.02c26.59,18.69,45.03,43.69,58.88,73.11,1.75,3.71,6.08,5.41,9.87,3.85,5.07-2.1,10.1-4.18,15.44-6.4,4.37-1.81,6.07-7.12,3.56-11.13-7.03-11.27-13.23-22.03-21.12-31.37-16.28-19.3-35.28-35.4-60.44-41.79-2.54-.64-5.23.08-7.13,1.88h0c-3.52,3.35-3.05,9.05.93,11.85Zm-33.85,123.92c2.2,5.56,4.42,11.14,6.67,16.81,1.15,2.91,4.34,4.49,7.34,3.59.31-.09.62-.2.92-.31,2.59-1,5.11-2.21,7.55-3.54,24.35-13.28,44.07-31.43,58.37-55.37,7.26-12.16,8.91-15.4,3.63-23.21-2.88-4.25-9.06-4.44-12.28-.45-1.22,1.52-2.46,3.01-3.74,4.46-14.24,16.17-32.36,30.47-49.91,39.49l-15.34,9.12c-3.23,1.92-4.59,5.9-3.2,9.4Z"/>
  </g>
</svg>